<svg width="100" height="81" viewBox="0 0 100 81" fill="none" xmlns="http://www.w3.org/2000/svg">
<path d="M35 0.5C36.9748 0.5 38.7989 1.10091 40.3115 2.13672C41.3211 2.82807 42.1974 3.7156 42.8809 4.73828C43.9049 6.27061 44.4999 8.11924 44.5 10.1221C44.5 13.1118 43.1354 15.7417 41.0088 17.5029L40.7129 17.749L40.874 18.0977L47.0146 31.3994L47.1963 31.792L47.6104 31.6699C49.1951 31.2027 50.8003 30.8672 52.5 30.8672C61.89 30.8672 69.5 38.5621 69.5 48.082C69.5 50.4351 69.0287 52.6948 68.1787 54.7383L68.0137 55.1348L68.3809 55.3574L82.7246 64.0723L83.0625 64.2773L83.3398 63.9971C83.7561 63.5757 84.1995 63.201 84.6855 62.873L84.6885 62.8711C86.2011 61.8353 88.0252 61.2354 90 61.2354C91.9748 61.2354 93.7989 61.8353 95.3115 62.8711C95.6919 63.1316 96.0542 63.417 96.3926 63.7266L96.7227 64.0439C97.1425 64.4848 97.5425 64.9664 97.8809 65.4727C98.905 67.0051 99.5 68.8544 99.5 70.8574C99.5 72.8595 98.9057 74.7088 97.8965 76.2422C97.213 77.2648 96.3367 78.1524 95.3271 78.8438C93.8145 79.8796 91.9904 80.4805 90.0156 80.4805C84.7819 80.4805 80.5156 76.1702 80.5156 70.8574C80.5156 69.9143 80.6636 69.0123 80.918 68.1338L81.0244 67.7656L80.6973 67.5674L66.2598 58.8047L65.8867 58.5791L65.6113 58.918C62.4785 62.7817 57.8041 65.2959 52.5 65.2959C43.11 65.2959 35.5001 57.6019 35.5 48.082C35.5 42.0558 38.567 36.7685 43.1982 33.6943L43.5557 33.457L43.376 33.0684L37.2822 19.8457L37.1191 19.4922L36.7363 19.5635C36.1601 19.6709 35.5835 19.7451 35 19.7451C29.7662 19.7451 25.5 15.4349 25.5 10.1221C25.5001 8.11924 26.0951 6.27061 27.1191 4.73828C27.8026 3.7156 28.6789 2.82807 29.6885 2.13672C31.2011 1.10091 33.0252 0.5 35 0.5ZM90 65.2959C86.9682 65.2959 84.5 67.8034 84.5 70.8574C84.5 73.9115 86.9681 76.4189 90 76.4189C93.0319 76.4189 95.5 73.9115 95.5 70.8574C95.5 67.8034 93.0318 65.2959 90 65.2959ZM52.5 34.9287C45.3275 34.9287 39.5 40.8366 39.5 48.082C39.5001 55.3274 45.3276 61.2354 52.5 61.2354C59.6724 61.2354 65.4999 55.3274 65.5 48.082C65.5 40.8366 59.6725 34.9287 52.5 34.9287ZM10 38.459C11.9748 38.459 13.7989 39.0599 15.3115 40.0957C16.3211 40.787 17.1974 41.6746 17.8809 42.6973C18.905 44.2297 19.5 46.079 19.5 48.082C19.4999 53.3948 15.2337 57.7041 10 57.7041C4.76629 57.7041 0.500082 53.3948 0.5 48.082C0.5 46.079 1.09503 44.2297 2.11914 42.6973C2.8026 41.6746 3.67893 40.787 4.68848 40.0957C6.20114 39.0599 8.02523 38.459 10 38.459ZM10 42.5205C6.96814 42.5205 4.5 45.028 4.5 48.082C4.50008 51.136 6.96819 53.6436 10 53.6436C13.0318 53.6436 15.4999 51.136 15.5 48.082C15.5 45.028 13.0319 42.5205 10 42.5205ZM30.75 46.0508V50.1123H24.25V46.0508H30.75ZM79.5537 31.9756L72.8496 37.0645L70.4453 33.8203L77.1494 28.7305L79.5537 31.9756ZM90 10.6221C91.9748 10.6221 93.7989 11.223 95.3115 12.2588C95.8186 12.606 96.2937 12.9974 96.7227 13.4316C97.1515 13.8658 97.5377 14.3468 97.8809 14.8604C98.905 16.3928 99.5 18.2421 99.5 20.2451C99.5 22.2481 98.9049 24.0975 97.8809 25.6299C97.1974 26.6525 96.321 27.5402 95.3115 28.2314C93.7989 29.2672 91.9748 29.8672 90 29.8672C84.7663 29.8672 80.5001 25.5579 80.5 20.2451C80.5 18.2421 81.095 16.3928 82.1191 14.8604C82.8026 13.8377 83.6789 12.9501 84.6885 12.2588C86.2011 11.223 88.0252 10.6221 90 10.6221ZM90 14.6836C86.9681 14.6836 84.5 17.191 84.5 20.2451C84.5001 23.2991 86.9682 25.8066 90 25.8066C93.0318 25.8066 95.4999 23.2991 95.5 20.2451C95.5 17.191 93.0319 14.6836 90 14.6836ZM35 4.56152C31.9683 4.56152 29.5002 7.06819 29.5 10.1221C29.5 13.1761 31.9681 15.6836 35 15.6836C38.0319 15.6836 40.5 13.1761 40.5 10.1221C40.4998 7.06819 38.0317 4.56152 35 4.56152Z" fill="#3FA5D5" stroke="black"/>
</svg>
