<svg width="100" height="94" viewBox="0 0 100 94" fill="none" xmlns="http://www.w3.org/2000/svg">
<path d="M8.33301 0.5H91.667C95.9661 0.500188 99.5 4.19209 99.5 8.7998V61.5957C99.5 66.2034 95.9661 69.8943 91.667 69.8945H57.7012L57.8467 70.5098L62.0137 88.1094L62.1045 88.4941H75C76.2263 88.4941 77.2773 89.5637 77.2773 90.9268C77.2773 92.2898 76.2263 93.3604 75 93.3604H25C23.7737 93.3604 22.7227 92.2898 22.7227 90.9268C22.7227 89.5638 23.7737 88.4941 25 88.4941H37.8955L37.9863 88.1094L42.1533 70.5098L42.2988 69.8945H8.33301C4.03392 69.8943 0.500041 66.2034 0.5 61.5957V8.7998C0.5 4.19209 4.03389 0.500186 8.33301 0.5ZM45.5205 76.1465L42.7422 87.8789L42.5967 88.4941H57.4033L57.2578 87.8789L54.4795 76.1465L54.3887 75.7617H45.6113L45.5205 76.1465ZM5.05566 61.5957C5.05571 63.4589 6.50398 65.0281 8.33301 65.0283H91.667C93.496 65.0281 94.9443 63.4589 94.9443 61.5957V52.2959H5.05566V61.5957ZM8.33301 5.36621C6.50395 5.3664 5.05566 6.93654 5.05566 8.7998V47.4297H94.9443V8.7998C94.9443 6.93654 93.496 5.3664 91.667 5.36621H8.33301Z" fill="#3FA5D5" stroke="black"/>
</svg>
